<svg xmlns="http://www.w3.org/2000/svg" version="1.1" xmlns:xlink="http://www.w3.org/1999/xlink" xmlns:svgjs="http://svgjs.dev/svgjs" width="1000" height="623" viewBox="0 0 1000 623"><g transform="matrix(1,0,0,1,-0.6060606060606233,0.2522267206477409)"><svg viewBox="0 0 396 247" data-background-color="#ffffff" preserveAspectRatio="xMidYMid meet" height="623" width="1000" xmlns="http://www.w3.org/2000/svg" xmlns:xlink="http://www.w3.org/1999/xlink"><g id="tight-bounds" transform="matrix(1,0,0,1,0.2400000000000091,-0.09999999999999432)"><svg viewBox="0 0 395.52 247.2" height="247.2" width="395.52"><g><svg></svg></g><g><svg viewBox="0 0 395.52 247.2" height="247.2" width="395.52"><g transform="matrix(1,0,0,1,75.54432,92.6809768248549)"><svg viewBox="0 0 244.43135999999998 61.8380463502902" height="61.8380463502902" width="244.43135999999998"><g><svg viewBox="0 0 244.43135999999998 61.8380463502902" height="61.8380463502902" width="244.43135999999998"><g><svg viewBox="0 0 244.43135999999998 61.8380463502902" height="61.8380463502902" width="244.43135999999998"><g id="textblocktransform"><svg viewBox="0 0 244.43135999999998 61.8380463502902" height="61.8380463502902" width="244.43135999999998" id="textblock"><g><svg viewBox="0 0 244.43135999999998 61.8380463502902" height="61.8380463502902" width="244.43135999999998"><g transform="matrix(1,0,0,1,0,0)"><svg width="244.43135999999998" viewBox="-5.519999980926514 -36.18000030517578 143.02000427246094 36.18000030517578" height="61.8380463502902" data-palette-color="#031d45"><path d="M35.45-30.96Q35.25-31.05 34.16-31.1 33.06-31.15 31.52-31.18 29.98-31.2 28.2-31.23 26.42-31.25 24.83-31.25 23.24-31.25 22.05-31.25 20.85-31.25 20.46-31.25L20.46-31.25Q20.07-27.59 20.04-23.93 20.02-20.26 20.02-16.6L20.02-16.6Q20.02-14.26 19.97-11.96 19.92-9.67 19.92-7.32L19.92-7.32Q19.92-6.93 19.92-5.83 19.92-4.74 19.97-3.52 20.02-2.29 20.19-1.27 20.36-0.24 20.65 0L20.65 0 12.11 0Q12.45-0.29 12.62-1.88 12.79-3.47 12.92-5.71 13.04-7.96 13.06-10.6 13.09-13.23 13.09-15.63 13.09-18.02 13.06-19.85 13.04-21.68 13.04-22.41L13.04-22.41Q13.04-24.61 13.01-26.81 12.99-29 12.84-31.2L12.84-31.2Q9.67-31.2 6.54-31.18 3.42-31.15 0.24-31.1L0.24-31.1Q-0.24-31.1-1-31.08-1.76-31.05-2.59-31.05-3.42-31.05-4.17-31.01-4.93-30.96-5.37-30.86L-5.37-30.86-5.52-35.94 35.5-36.18 35.45-30.96ZM83.84 0Q84.03-0.24 84.03-0.83 84.03-1.42 84.03-1.71L84.03-1.71Q84.03-4.74 83.71-7.76 83.4-10.79 83.01-13.77L83.01-13.77Q82.71-16.5 82.35-19.43 81.98-22.36 81.44-25L81.44-25Q78.95-21.48 76.78-17.82 74.61-14.16 72.41-10.45L72.41-10.45 69.92-6.15Q69.53-5.52 69.16-4.86 68.8-4.2 68.36-3.61L68.36-3.61Q67.33-3.56 66.31-3.56 65.28-3.56 64.26-3.56L64.26-3.56Q63.23-3.56 62.18-3.54 61.13-3.52 60.1-3.61L60.1-3.61Q59.71-4.2 59.35-4.86 58.98-5.52 58.59-6.2L58.59-6.2 56.05-10.5Q53.85-14.16 51.68-17.82 49.51-21.48 47.02-25L47.02-25Q46.48-22.36 46.14-19.43 45.8-16.5 45.46-13.77L45.46-13.77Q45.07-10.79 44.75-7.76 44.43-4.74 44.43-1.71L44.43-1.71Q44.43-1.42 44.43-0.83 44.43-0.24 44.68 0L44.68 0 35.74 0Q36.03-0.29 36.33-1.49 36.62-2.69 36.89-4.35 37.16-6.01 37.38-7.91 37.6-9.81 37.77-11.55 37.94-13.28 38.06-14.6 38.18-15.92 38.23-16.41L38.23-16.41Q38.57-20.21 38.99-24.12 39.4-28.03 39.4-31.84L39.4-31.84Q39.4-32.13 39.4-32.79 39.4-33.45 39.3-34.11 39.21-34.77 38.99-35.3 38.77-35.84 38.38-35.99L38.38-35.99 50.29-35.99Q50.05-35.84 50.05-35.5L50.05-35.5Q50.05-34.62 50.93-32.67 51.8-30.71 53.17-28.2 54.54-25.68 56.22-22.92 57.91-20.17 59.47-17.65 61.03-15.14 62.33-13.13 63.62-11.13 64.26-10.21L64.26-10.21Q64.84-11.13 66.14-13.13 67.43-15.14 69.02-17.65 70.6-20.17 72.26-22.95 73.92-25.73 75.29-28.22 76.66-30.71 77.54-32.67 78.42-34.62 78.42-35.5L78.42-35.5Q78.42-35.84 78.22-35.99L78.22-35.99 90.13-35.99Q89.69-35.84 89.48-35.3 89.26-34.77 89.16-34.11 89.06-33.45 89.06-32.79 89.06-32.13 89.06-31.84L89.06-31.84Q89.06-28.03 89.48-24.12 89.89-20.21 90.28-16.41L90.28-16.41Q90.33-15.92 90.43-14.6 90.52-13.28 90.7-11.55 90.87-9.81 91.09-7.91 91.31-6.01 91.57-4.35 91.84-2.69 92.14-1.49 92.43-0.29 92.77 0L92.77 0 83.84 0ZM137.5 0L128.32 0Q128.36-0.05 128.36-0.2L128.36-0.2Q128.36-0.54 128.1-1.34 127.83-2.15 127.51-3.05 127.19-3.96 126.85-4.76 126.51-5.57 126.36-5.91L126.36-5.91Q121.19-6.1 115.99-6.05 110.79-6.01 105.61-5.81L105.61-5.81Q105.46-5.47 105.12-4.66 104.78-3.86 104.46-2.98 104.15-2.1 103.88-1.32 103.61-0.54 103.61-0.2L103.61-0.2Q103.61-0.05 103.66 0L103.66 0 94.53 0Q94.82-0.34 95.23-1.1 95.65-1.86 96.06-2.71 96.48-3.56 96.87-4.37 97.26-5.18 97.46-5.62L97.46-5.62Q97.99-6.69 99.16-9.08 100.34-11.47 101.78-14.53 103.22-17.58 104.76-20.92 106.29-24.27 107.56-27.25 108.83-30.22 109.64-32.47 110.44-34.72 110.44-35.55L110.44-35.55Q110.44-35.64 110.42-35.77 110.4-35.89 110.3-35.89L110.3-35.89 121.72-35.89Q121.63-35.89 121.6-35.77 121.58-35.64 121.58-35.55L121.58-35.55Q121.58-34.72 122.38-32.47 123.19-30.22 124.46-27.25 125.73-24.27 127.27-20.92 128.8-17.58 130.24-14.53 131.68-11.47 132.83-9.08 133.98-6.69 134.52-5.62L134.52-5.62Q134.71-5.18 135.1-4.37 135.49-3.56 135.93-2.71 136.37-1.86 136.79-1.1 137.2-0.34 137.5 0L137.5 0ZM107.61-10.45L109.66-10.4Q116.94-10.4 124.26-10.69L124.26-10.69Q122.26-15.14 120.28-19.48 118.31-23.83 116.01-28.08L116.01-28.08Q113.67-23.78 111.66-19.34 109.66-14.89 107.61-10.45L107.61-10.45Z" opacity="1" transform="matrix(1,0,0,1,0,0)" fill="#031d45" class="undefined-text-0" data-fill-palette-color="primary" id="text-0"></path></svg></g></svg></g></svg></g></svg></g></svg></g></svg></g><path d="M195.611 86.681L195.611 28.29 386.231 28.29 386.231 218.91 195.611 218.91 195.611 160.519 201.187 160.519 201.187 213.333 380.654 213.333 380.654 33.867 201.187 33.867 201.187 86.681Z" fill="#031d45" stroke="transparent" data-fill-palette-color="primary"></path></svg></g><defs></defs></svg><rect width="395.52" height="247.2" fill="none" stroke="none" visibility="hidden"></rect></g></svg></g></svg>